<?xml version="1.0" encoding="utf-8"?>
<!-- Generator: Adobe Illustrator 18.0.0, SVG Export Plug-In . SVG Version: 6.00 Build 0)  -->
<!DOCTYPE svg PUBLIC "-//W3C//DTD SVG 1.1//EN" "http://www.w3.org/Graphics/SVG/1.1/DTD/svg11.dtd">
<svg version="1.1" id="Calque_1" xmlns="http://www.w3.org/2000/svg" xmlns:xlink="http://www.w3.org/1999/xlink" x="0px" y="0px"
	 width="238.9px" height="434.4px" viewBox="0 0 238.9 434.4" enable-background="new 0 0 238.9 434.4" xml:space="preserve">
<path fill="#C7A38A" d="M146.1,378.8c-9,18.8-17.2,36-26.6,55.6c-9.4-19.4-17.8-36.8-26.9-55.6C62.6,392.3,32.9,405.7,0,420.5
	c39.8-102.9,78.5-202.8,117.2-302.8c-0.7-0.8-1.4-1.6-2.1-2.4c-9.3,6.5-18.3,13.8-28.2,19.3c-4.3,2.4-11.1,3.4-15.6,1.8
	c-18.8-7.1-37.2-15.4-58.1-24.2C35.5,102.7,55.4,94,75.6,86c2.7-1.1,7.2,0.4,10,2.3c9.6,6.2,18.8,13.1,29.9,18.2
	c-5.7-9.2-12.1-18-16.8-27.8c-2.4-5.1-3.6-12.6-1.9-17.8c6.4-19.4,14.1-38.4,22.7-60.9c9.1,24.1,17.4,45,24.7,66.1
	c1.1,3.2-1.1,8.4-3.1,11.8c-5.6,9.7-11.8,19.1-16.5,30.3c6.7-4.7,14.2-8.5,20-14.2c10.1-9.9,19.8-9.1,31.5-3.2
	c15.4,7.7,31.6,13.7,49.6,21.3c-22.2,9.3-42.2,18-62.5,25.9c-2.7,1.1-7.1-0.6-9.9-2.4c-10.2-6.5-20-13.7-32-19
	c38.7,100,77.5,200.1,117.6,303.7C206.4,405.8,176.8,392.6,146.1,378.8z"/>
</svg>
